<svg xmlns="http://www.w3.org/2000/svg" viewBox="0 0 100 100">
  <defs>
    <linearGradient id="sky" x1="0" y1="0" x2="0" y2="1">
      <stop offset="0%" stop-color="#0F2B4A"/>
      <stop offset="100%" stop-color="#1A4A6E"/>
    </linearGradient>
    <linearGradient id="sun" x1="0" y1="0" x2="1" y2="1">
      <stop offset="0%" stop-color="#F5D68A"/>
      <stop offset="100%" stop-color="#E8B84A"/>
    </linearGradient>
  </defs>
  <rect width="100" height="100" rx="20" fill="url(#sky)"/>
  <circle cx="65" cy="35" r="16" fill="url(#sun)" opacity="0.9"/>
  <line x1="50" y1="90" x2="50" y2="40" stroke="#6B4A2A" stroke-width="5" stroke-linecap="round"/>
  <path d="M50 45 C30 30 15 40 10 35 C20 38 35 35 50 42" fill="#3A8A3A" opacity="0.9"/>
  <path d="M50 42 C35 28 20 28 15 22 C25 28 35 30 50 38" fill="#4A9A4A" opacity="0.85"/>
  <path d="M50 48 C65 38 80 40 85 35 C75 40 65 40 50 45" fill="#3A8A3A" opacity="0.9"/>
  <path d="M50 45 C65 32 80 25 85 20 C75 28 65 32 50 42" fill="#4A9A4A" opacity="0.85"/>
  <path d="M50 76 C38 68 28 70 25 66 C32 70 40 70 50 72" fill="#4A8A4A" opacity="0.7"/>
  <path d="M50 82 C62 74 72 76 75 72 C68 76 60 76 50 78" fill="#4A8A4A" opacity="0.7"/>
  <circle cx="50" cy="88" r="3" fill="#8B6A3A"/>
  <circle cx="47" cy="86" r="2.5" fill="#9B7A4A"/>
  <circle cx="53" cy="86" r="2.5" fill="#9B7A4A"/>
  <circle cx="50" cy="83" r="2" fill="#7B5A2A"/>
</svg>